# xmcd
# 
# Track frame offsets:
#     183
#     18358
#     43118
#     60173
#     76973
#     90783
#     106028
#     132633
#     151898
#     177988
# 
# Disc length: 2795
# 
# Revision: 10
# Processed by: cddbd v1.5.2PL0 Copyright (c) Steve Scherf et al.
# Submitted via: fre:ac v1.0.31
# 
DISCID=6a0ae90a
DTITLE=Stevie Wonder - Journey Through ... [CD2]
DYEAR=1979
DGENRE=Soundtracks
TTITLE0=Send One Your Love
TTITLE1=Outside My Window
TTITLE2=Black Orchid
TTITLE3=Ecclesiastes
TTITLE4=Kesse Ye Lolo De Ye
TTITLE5=Come Back As A Flower
TTITLE6=A Seed's A Star - Tree Medley
TTITLE7=The Secret Life Of Plants
TTITLE8=Tree
TTITLE9=Finale
EXTD=
EXTT0=
EXTT1=
EXTT2=
EXTT3=
EXTT4=
EXTT5=
EXTT6=
EXTT7=
EXTT8=
EXTT9=
PLAYORDER=
